<svg width="182" height="61" viewBox="0 0 182 61" fill="none" xmlns="http://www.w3.org/2000/svg">
<path d="M0 30.077C0 37.1704 0.551998 45.6574 6.86832 51.3326C16.558 60.0292 22.8864 60.0801 29.7518 60.0801C36.6172 60.0801 42.3388 57.58 50.3478 48.8321C54.8924 43.8569 57.0281 38.8057 57.21 33.8305C57.3075 31.292 56.0938 25.738 55.572 23.734C53.2845 14.9863 49.0978 10.8573 45.1175 7.0019C37.964 0.0800758 29.7518 0.0800781 25.1741 0.0800781C18.3087 0.0800781 12.8388 2.30045 8.01206 7.58089C3.43416 12.5814 0 22.5762 0 30.077Z" fill="#FDFBF9"/>
<path d="M48.2272 26.1664C47.3588 25.3505 46.0804 24.9395 44.3912 24.9395C43.416 24.9395 42.5358 25.1241 41.7568 25.4813C40.9778 25.8388 40.3888 26.3451 39.9902 27.0002H39.6306C38.8365 25.6301 37.326 24.9395 35.0927 24.9395C34.1143 24.9395 33.252 25.13 32.4908 25.4875C31.7385 25.8507 31.1619 26.3569 30.7601 27.0003H30.5342L30.1152 25.2076H30.1033L30.1152 25.1837H26.8769L22.5592 33.8316V19.7817H18.2476V24.2129C18.2476 25.0288 18.3488 25.958 18.557 27.0061H18.4262C17.4271 25.6361 16.2287 24.9512 14.3346 24.9512C12.5325 24.9512 11.1141 25.5884 10.0824 26.8749C9.05357 28.1554 8.53906 29.9481 8.53906 32.247C8.53906 34.5102 9.04459 36.285 10.0555 37.5656C11.0665 38.8459 12.4611 39.4832 14.2274 39.4832C16.1424 39.4832 17.421 38.7926 18.3545 37.4167H18.5329L19.324 39.2271H22.5592H23.1006L26.8769 31.6633V39.2271H30.9448V32.628C30.9448 30.9841 31.1827 29.7991 31.6524 29.0845C32.1222 28.3579 32.8806 28.0006 33.9182 28.0006C34.6972 28.0006 35.2623 28.2567 35.6221 28.763C35.9819 29.2693 36.1601 30.0257 36.1601 31.0383V39.2273H40.228V32.1937C40.228 30.7405 40.478 29.6744 40.9715 29.0072C41.4652 28.334 42.2086 28.0006 43.2046 28.0006C43.9808 28.0006 44.5459 28.2567 44.9026 28.763C45.2653 29.2693 45.4437 30.0257 45.4437 31.0383V39.2273H49.5293V30.0852C49.5295 28.2868 49.0954 26.9824 48.2272 26.1664ZM18.7829 32.7833C18.7413 34.1417 18.4766 35.1062 17.9978 35.6779C17.5222 36.244 16.77 36.5296 15.7438 36.5296C14.8193 36.5296 14.1023 36.1844 13.6031 35.4933C13.1033 34.8084 12.8535 33.7722 12.8535 32.3903C12.8535 31.0145 13.1033 29.9662 13.597 29.2458C14.0905 28.5192 14.7866 28.1558 15.6785 28.1558C16.7726 28.1558 17.5667 28.4832 18.0514 29.1323C18.5392 29.7817 18.7829 30.8656 18.7829 32.3664V32.7833Z" fill="#2C2C2C"/>
<path d="M91.495 37.2591C90.6105 36.41 89.306 35.9886 87.5764 35.9886C86.5791 35.9886 85.6794 36.1807 84.8829 36.5525C84.0865 36.9305 83.4843 37.4514 83.0768 38.1332H82.7061C81.8973 36.7074 80.3531 35.9886 78.0729 35.9886C77.0697 35.9886 76.1819 36.1807 75.4097 36.5525C74.6376 36.9371 74.0478 37.4578 73.6403 38.1332H73.4093L72.9776 36.2675L69.6731 36.2486L67.4629 40.7425L69.6731 41.8645V50.8582H73.8289V43.9905C73.8289 42.2735 74.0722 41.0466 74.5554 40.2962C75.0328 39.5462 75.8111 39.1744 76.8688 39.1744C77.6652 39.1744 78.243 39.4409 78.614 39.9676C78.9789 40.4944 79.1613 41.2753 79.1613 42.3354V50.858H83.3199V43.5315C83.3199 42.0191 83.5753 40.9158 84.08 40.2156C84.5846 39.5213 85.3447 39.1744 86.3629 39.1744C87.1535 39.1744 87.7342 39.4409 88.1021 39.9676C88.4697 40.4944 88.6552 41.2753 88.6552 42.3354V50.858H92.8231V41.3436C92.8233 39.472 92.3826 38.1085 91.495 37.2591ZM105.731 50.8582L104.974 48.8683H104.874C104.211 49.7177 103.534 50.3005 102.837 50.6289C102.144 50.951 101.235 51.1247 100.116 51.1247C98.7392 51.1247 97.6569 50.7221 96.8664 49.9161C96.0758 49.1163 95.6808 47.97 95.6808 46.4885C95.6808 44.939 96.2158 43.7982 97.2739 43.0608C98.3438 42.3233 99.9459 41.9202 102.089 41.8396L104.576 41.759V41.1206C104.576 39.6393 103.831 38.8955 102.344 38.8955C101.201 38.8955 99.8516 39.2488 98.3102 39.9552L97.0122 37.2651C98.6599 36.3851 100.49 35.9387 102.496 35.9387C104.424 35.9387 105.895 36.3726 106.92 37.2283C107.95 38.0772 108.461 39.379 108.461 41.1206V50.8582H105.731ZM104.576 44.0833L103.062 44.1394C101.925 44.1766 101.08 44.381 100.524 44.7652C99.9738 45.15 99.6938 45.7324 99.6938 46.5192C99.6938 47.6414 100.323 48.2053 101.591 48.2053C102.491 48.2053 103.22 47.9388 103.762 47.4121C104.303 46.8791 104.576 46.1723 104.576 45.2859V44.0833ZM118.433 51.1247C113.976 51.1247 111.745 48.6205 111.745 43.631C111.745 41.1457 112.353 39.249 113.563 37.9349C114.779 36.6272 116.518 35.9701 118.78 35.9701C120.439 35.9701 121.926 36.3049 123.242 36.962L122.087 40.0486C121.473 39.7882 120.901 39.5896 120.373 39.4288C119.844 39.2612 119.315 39.1871 118.78 39.1871C116.749 39.1871 115.727 40.662 115.727 43.6004C115.727 46.4639 116.749 47.8896 118.78 47.8896C119.534 47.8896 120.23 47.7903 120.871 47.5859C121.51 47.3813 122.154 47.059 122.792 46.6189V50.0343C122.16 50.4434 121.522 50.7223 120.88 50.8833C120.233 51.0379 119.418 51.1247 118.433 51.1247ZM139.525 50.8582H135.618V42.3233C135.618 40.2158 134.849 39.162 133.311 39.162C132.217 39.162 131.423 39.5402 130.94 40.2962C130.453 41.0524 130.21 42.2799 130.21 43.978V50.858H126.294V30.5155H130.21V34.662C130.21 34.9844 130.177 35.7406 130.116 36.9371L130.028 38.1085H130.235C131.104 36.6827 132.491 35.9701 134.384 35.9701C136.069 35.9701 137.348 36.4287 138.218 37.3587C139.087 38.2824 139.525 39.6025 139.525 41.3255V50.8582H139.525ZM143.514 32.4683C143.514 31.1665 144.225 30.5155 145.641 30.5155C147.064 30.5155 147.769 31.1665 147.769 32.4683C147.769 33.0877 147.593 33.5712 147.237 33.9122C146.885 34.2531 146.353 34.4269 145.641 34.4269C144.225 34.4267 143.514 33.7697 143.514 32.4683ZM147.593 50.8582H143.684V36.2488H147.593V50.8582ZM165.052 50.8582H161.146V42.3233C161.146 41.2695 160.957 40.4759 160.592 39.9493C160.222 39.4162 159.638 39.162 158.835 39.162C157.741 39.162 156.95 39.5339 156.464 40.2777C155.977 41.0213 155.734 42.2612 155.734 43.978V50.858H151.825V36.2486H154.81L155.333 38.1083H155.555C155.99 37.4078 156.589 36.875 157.352 36.5093C158.124 36.156 158.988 35.9699 159.966 35.9699C161.629 35.9699 162.897 36.4285 163.757 37.3521C164.624 38.2631 165.052 39.5894 165.052 41.3251V50.8582H165.052ZM178.31 50.8582L177.556 48.8683H177.45C176.79 49.7177 176.115 50.3005 175.422 50.6289C174.723 50.951 173.811 51.1247 172.692 51.1247C171.318 51.1247 170.236 50.7221 169.445 49.9161C168.652 49.1163 168.26 47.97 168.26 46.4885C168.26 44.939 168.792 43.7982 169.853 43.0608C170.92 42.3233 172.522 41.9202 174.671 41.8396L177.155 41.759V41.1206C177.155 39.6393 176.413 38.8955 174.924 38.8955C173.781 38.8955 172.43 39.2488 170.886 39.9552L169.591 37.2651C171.245 36.3851 173.072 35.9387 175.081 35.9387C177.003 35.9387 178.474 36.3726 179.502 37.2283C180.526 38.0772 181.04 39.379 181.04 41.1206V50.8582H178.31ZM177.155 44.0833L175.647 44.1394C174.507 44.1766 173.662 44.381 173.105 44.7652C172.552 45.15 172.272 45.7324 172.272 46.5192C172.272 47.6414 172.905 48.2053 174.169 48.2053C175.075 48.2053 175.799 47.9388 176.343 47.4121C176.884 46.8791 177.155 46.1723 177.155 45.2859V44.0833H177.155ZM94.0393 28.3771L93.2854 26.3874H93.1821C92.5255 27.2304 91.8507 27.8192 91.1515 28.1478C90.4523 28.4762 89.5463 28.6375 88.4275 28.6375C87.0535 28.6375 85.9713 28.2346 85.1807 27.4288C84.3905 26.6293 83.9953 25.4949 83.9953 24.0074C83.9953 22.4577 84.524 21.3111 85.5913 20.5797C86.6523 19.842 88.2573 19.4329 90.4037 19.3523L92.8904 19.2779V18.6395C92.8904 17.158 92.1457 16.4144 90.6591 16.4144C89.5128 16.4144 88.1659 16.7677 86.6216 17.4743L85.3265 14.7842C86.9774 13.9042 88.8044 13.4578 90.811 13.4578C92.7323 13.4578 94.2097 13.8917 95.234 14.7408C96.2585 15.5963 96.7722 16.8917 96.7722 18.6395V28.3769H94.0393V28.3771ZM92.8902 21.6085L91.3762 21.6583C90.2391 21.6893 89.3942 21.9063 88.8378 22.2843C88.2815 22.6686 88.0079 23.2574 88.0079 24.0383C88.0079 25.1601 88.6402 25.7242 89.9048 25.7242C90.8077 25.7242 91.5344 25.4577 92.0725 24.9246C92.6167 24.3916 92.8902 23.6911 92.8902 22.811V21.6085ZM106.358 25.4577C107.045 25.4577 107.866 25.3088 108.82 24.9991V27.9681C107.841 28.4143 106.647 28.6375 105.233 28.6375C103.67 28.6375 102.527 28.2346 101.816 27.4288C101.105 26.6231 100.746 25.4143 100.746 23.8028V16.7554H98.8732V15.0695L101.025 13.7368L102.156 10.6502H104.655V13.7617H108.662V16.7556H104.655V23.803C104.655 24.3669 104.807 24.7823 105.123 25.0552C105.433 25.3213 105.847 25.4577 106.358 25.4577ZM120.92 28.3771L120.166 26.3874H120.056C119.4 27.2304 118.728 27.8192 118.032 28.1478C117.332 28.4762 116.426 28.6375 115.308 28.6375C113.931 28.6375 112.845 28.2346 112.058 27.4288C111.264 26.6293 110.869 25.4949 110.869 24.0074C110.869 22.4577 111.404 21.3111 112.465 20.5797C113.532 19.842 115.135 19.4329 117.278 19.3523L119.764 19.2779V18.6395C119.764 17.158 119.02 16.4144 117.533 16.4144C116.39 16.4144 115.046 16.7677 113.499 17.4743L112.207 14.7842C113.854 13.9042 115.678 13.4578 117.691 13.4578C119.612 13.4578 121.084 13.8917 122.111 14.7408C123.133 15.5963 123.646 16.8917 123.646 18.6395V28.3769H120.92V28.3771ZM119.764 21.6085L118.256 21.6583C117.117 21.6893 116.268 21.9063 115.715 22.2843C115.158 22.6686 114.882 23.2574 114.882 24.0383C114.882 25.1601 115.514 25.7242 116.779 25.7242C117.685 25.7242 118.408 25.4577 118.949 24.9246C119.49 24.3916 119.764 23.6911 119.764 22.811V21.6085H119.764ZM73.2787 28.6375C71.4699 28.6375 70.0472 27.9681 69.0194 26.6416C67.9799 25.3088 67.4629 23.4618 67.4629 21.1063C67.4629 18.7138 67.992 16.8481 69.0438 15.5155C70.0959 14.1767 71.546 13.5073 73.388 13.5073C75.3306 13.5073 76.5468 14.2201 77.5713 15.6457H77.7021C77.4952 14.5609 77.3858 13.5879 77.3858 12.7388V8.13965H81.8001V28.3769H78.4925L77.6775 26.4802H77.5014C76.5468 27.9185 75.2335 28.6375 73.2787 28.6375ZM74.8323 25.5632C75.8779 25.5632 76.647 25.2656 77.1304 24.6707C77.6231 24.0819 77.8874 23.0777 77.9331 21.6583V21.2305C77.9331 19.6686 77.684 18.5468 77.1853 17.8649C76.6931 17.1893 75.8843 16.8485 74.7653 16.8485C73.8533 16.8485 73.142 17.2265 72.6375 17.9704C72.1267 18.7265 71.8774 19.8237 71.8774 21.2554C71.8774 22.6872 72.1327 23.7656 72.6433 24.4847C73.1543 25.1973 73.8836 25.5632 74.8323 25.5632Z" fill="white"/>
</svg>
