<svg width="22" height="22" viewBox="0 0 22 22" fill="none" xmlns="http://www.w3.org/2000/svg">
<circle cx="15.5619" cy="6.33728" r="2.66267" stroke="#2C2C2C" stroke-width="1.4"/>
<path d="M1.12109 13.4729L5.14818 9.44379C5.53867 9.0531 6.17198 9.05302 6.56257 9.44362L12.196 15.077" stroke="#2C2C2C" stroke-width="1.6"/>
<path d="M1.12109 13.4729L5.14818 9.44379C5.53867 9.0531 6.17198 9.05302 6.56257 9.44362L12.196 15.077" stroke="#2C2C2C" stroke-width="1.6"/>
<path d="M6.17383 20.9747L13.7839 13.3652C14.1745 12.9748 14.8076 12.9748 15.1981 13.3653L20.8317 18.9989" stroke="#2C2C2C" stroke-width="1.6"/>
<path d="M6.17383 20.9747L13.7839 13.3652C14.1745 12.9748 14.8076 12.9748 15.1981 13.3653L20.8317 18.9989" stroke="#2C2C2C" stroke-width="1.6"/>
<mask id="path-4-inside-1_1355_2195" fill="white">
<rect x="0.248047" y="0.304688" width="21.3238" height="21.3906" rx="1"/>
</mask>
<rect x="0.248047" y="0.304688" width="21.3238" height="21.3906" rx="1" stroke="#2C2C2C" stroke-width="3.2" mask="url(#path-4-inside-1_1355_2195)"/>
</svg>
