<svg width="1282" height="320" viewBox="0 0 1282 320" fill="none" xmlns="http://www.w3.org/2000/svg">
<path d="M1280.82 319H0.822266" stroke="#606060" stroke-width="0.6636" stroke-miterlimit="10" stroke-dasharray="6.64 6.64"/>
<path d="M1280.82 160H0.822266" stroke="#606060" stroke-width="0.6636" stroke-miterlimit="10" stroke-dasharray="6.64 6.64"/>
<path d="M1280.82 80.5027H0.822266" stroke="#606060" stroke-width="0.6636" stroke-miterlimit="10" stroke-dasharray="6.64 6.64"/>
<path d="M1280.82 1H0.822266" stroke="#606060" stroke-width="0.6636" stroke-miterlimit="10" stroke-dasharray="6.64 6.64"/>
<path d="M1280.82 239.502H0.822266" stroke="#606060" stroke-width="0.6636" stroke-miterlimit="10" stroke-dasharray="6.64 6.64"/>
<path d="M480.572 1V318.766" stroke="#606060" stroke-width="0.6636" stroke-miterlimit="10" stroke-dasharray="6.64 6.64"/>
<path d="M1120.57 1V318.766" stroke="#606060" stroke-width="0.6636" stroke-miterlimit="10" stroke-dasharray="6.64 6.64"/>
<path d="M1200.7 1V318.766" stroke="#606060" stroke-width="0.6636" stroke-miterlimit="10" stroke-dasharray="6.64 6.64"/>
<path d="M1040.45 1V318.766" stroke="#606060" stroke-width="0.6636" stroke-miterlimit="10" stroke-dasharray="6.64 6.64"/>
<path d="M881.197 1V318.766" stroke="#606060" stroke-width="0.6636" stroke-miterlimit="10" stroke-dasharray="6.64 6.64"/>
<path d="M720.947 1V318.766" stroke="#606060" stroke-width="0.6636" stroke-miterlimit="10" stroke-dasharray="6.64 6.64"/>
<path d="M560.697 1L560.697 318.766" stroke="#606060" stroke-width="0.6636" stroke-miterlimit="10" stroke-dasharray="6.64 6.64"/>
<path d="M400.447 1V318.766" stroke="#606060" stroke-width="0.6636" stroke-miterlimit="10" stroke-dasharray="6.64 6.64"/>
<path d="M241.197 1V318.766" stroke="#606060" stroke-width="0.6636" stroke-miterlimit="10" stroke-dasharray="6.64 6.64"/>
<path d="M80.9473 1V318.766" stroke="#606060" stroke-width="0.6636" stroke-miterlimit="10" stroke-dasharray="6.64 6.64"/>
<path d="M0.826172 1V318.766" stroke="#606060" stroke-width="0.6636" stroke-miterlimit="10" stroke-dasharray="6.64 6.64"/>
<path d="M801.072 1V318.766" stroke="#606060" stroke-width="0.6636" stroke-miterlimit="10" stroke-dasharray="6.64 6.64"/>
<path d="M640.822 1V318.766" stroke="#606060" stroke-width="0.6636" stroke-miterlimit="10" stroke-dasharray="6.64 6.64"/>
<path d="M961.322 1V318.766" stroke="#606060" stroke-width="0.6636" stroke-miterlimit="10" stroke-dasharray="6.64 6.64"/>
<path d="M321.322 1V318.766" stroke="#606060" stroke-width="0.6636" stroke-miterlimit="10" stroke-dasharray="6.64 6.64"/>
<path d="M161.072 1V318.766" stroke="#606060" stroke-width="0.6636" stroke-miterlimit="10" stroke-dasharray="6.64 6.64"/>
<path d="M1199.82 1V1.00935C1199.82 1.00538 1199.83 1.00538 1199.83 1H1199.82Z" fill="white"/>
<path d="M1202.15 56.9326C1202.15 56.9326 1202.06 56.7516 1201.94 56.4831C1201.8 56.2105 1201.63 55.8491 1201.45 55.485C1201.09 54.7588 1200.73 54.0337 1200.73 54.0337C1200.73 54.0337 1200.39 54.0265 1199.82 54.0142V56.8359C1199.91 56.8404 1200 56.8481 1200.09 56.8481C1201.33 56.8977 1202.15 56.9326 1202.15 56.9326Z" fill="white"/>
<path d="M1203.22 62.601C1203.22 62.601 1201.76 62.5241 1199.82 62.4199V65.1713C1202.35 65.3183 1204.48 65.4328 1204.48 65.4328L1203.22 62.601Z" fill="white"/>
<path d="M1208.18 73.6034C1208.18 73.6034 1207.87 72.933 1207.55 72.2643C1207.39 71.934 1207.23 71.6005 1207.11 71.3519C1207 71.0893 1206.92 70.9178 1206.92 70.9178C1206.92 70.9178 1203.67 70.8108 1200.4 70.6369C1200.21 70.6267 1200.01 70.6184 1199.82 70.6033V73.3669C1200.42 73.3939 1201.04 73.4193 1201.67 73.4474C1204.95 73.5889 1208.18 73.6034 1208.18 73.6034Z" fill="white"/>
<path d="M1210.2 79.7641C1210.55 79.7218 1210.75 79.6918 1210.75 79.6918C1210.75 79.6918 1210.65 79.5571 1210.52 79.3238C1210.39 79.0934 1210.21 78.7902 1210.03 78.4863C1209.68 77.8725 1209.33 77.2627 1209.33 77.2627C1209.33 77.2627 1208.52 77.3275 1207.3 77.3851C1206.1 77.4315 1204.48 77.4733 1202.84 77.4767C1201.81 77.4808 1200.76 77.4733 1199.82 77.4539V79.9999H1207.6C1208.01 79.968 1208.41 79.9328 1208.76 79.9032C1209.35 79.8452 1209.85 79.7989 1210.2 79.7641Z" fill="white"/>
<path d="M1203.19 24.5313C1203.19 24.5313 1203.04 24.3583 1202.82 24.09C1202.59 23.8295 1202.31 23.4646 1201.99 23.122C1201.32 22.4545 1200.65 21.7876 1200.65 21.7876C1200.65 21.7876 1200.34 21.8596 1199.82 21.9977V25.2028C1200.26 25.0989 1200.68 25.0078 1201.06 24.9335C1202.32 24.6771 1203.19 24.5313 1203.19 24.5313Z" fill="white"/>
<path d="M1209.33 33.2132C1209.33 33.2132 1208.87 32.4603 1208.41 31.7052C1208.18 31.3288 1207.95 30.952 1207.78 30.6712C1207.61 30.3883 1207.48 30.2073 1207.48 30.2073C1207.48 30.2073 1203.93 30.4343 1200.59 30.9677C1200.33 31.0063 1200.07 31.0486 1199.82 31.0911V33.9494C1200.64 33.8314 1201.54 33.7159 1202.45 33.6233C1205.81 33.2891 1209.33 33.2132 1209.33 33.2132Z" fill="white"/>
<path d="M1202.46 42.0128C1203.75 41.9678 1205.44 41.9678 1207.15 41.9862C1208.86 42.0055 1210.58 42.051 1211.88 42.102C1213.17 42.1547 1214.03 42.1897 1214.03 42.1897C1214.03 42.1897 1213.94 42.0012 1213.81 41.7143C1213.67 41.4293 1213.49 41.0503 1213.3 40.6736C1212.93 39.9144 1212.56 39.154 1212.56 39.154C1212.56 39.154 1211.69 39.1347 1210.41 39.1035C1209.11 39.0809 1207.37 39.0809 1205.66 39.1162C1203.95 39.1542 1202.26 39.2259 1201 39.3002C1200.54 39.3299 1200.14 39.3609 1199.82 39.3916V41.123C1200.1 41.6453 1200.34 42.0899 1200.34 42.0899C1200.34 42.0899 1201.19 42.0601 1202.46 42.0128Z" fill="white"/>
<path d="M1218.02 51.0669L1216.72 48.1001C1216.72 48.1001 1213.29 47.916 1209.87 47.7323C1206.44 47.5744 1203.04 47.502 1203.04 47.502L1204.36 50.3497C1204.36 50.3497 1205.21 50.384 1206.49 50.4372C1207.77 50.5033 1209.47 50.5905 1211.18 50.6802C1214.6 50.8755 1218.02 51.0669 1218.02 51.0669Z" fill="white"/>
<path d="M1221.9 59.5953C1221.9 59.5953 1221.57 58.893 1221.23 58.1945C1221.07 57.8445 1220.9 57.4963 1220.77 57.2306C1220.65 56.9619 1220.57 56.7822 1220.57 56.7822C1220.57 56.7822 1217.17 56.6669 1213.74 56.4859C1210.32 56.2944 1206.9 56.1033 1206.9 56.1033L1208.22 59.0811C1208.22 59.0811 1211.66 59.2882 1215.07 59.4312C1218.51 59.5799 1221.9 59.5953 1221.9 59.5953Z" fill="white"/>
<path d="M1219.39 67.9966C1221.1 67.9275 1222.8 67.8079 1224.05 67.6943C1224.68 67.6323 1225.19 67.5818 1225.56 67.5479C1225.93 67.5014 1226.14 67.4711 1226.14 67.4711C1226.14 67.4711 1226.03 67.333 1225.9 67.0874C1225.76 66.8466 1225.57 66.5268 1225.39 66.2055C1225.01 65.5636 1224.65 64.927 1224.65 64.927C1224.65 64.927 1223.8 64.9958 1222.52 65.0576C1221.26 65.1029 1219.57 65.1453 1217.85 65.1494C1216.15 65.1604 1214.4 65.1296 1213.11 65.0926C1211.83 65.0451 1210.97 65.0188 1210.97 65.0188C1210.97 65.0188 1211.06 65.2071 1211.19 65.491C1211.33 65.7789 1211.5 66.1555 1211.7 66.5348C1212.1 67.2993 1212.49 68.0584 1212.49 68.0584C1212.49 68.0584 1213.36 68.0705 1214.65 68.0861C1215.29 68.0776 1216.04 68.0776 1216.85 68.0733C1217.66 68.0582 1218.53 68.0356 1219.39 67.9966Z" fill="white"/>
<path d="M1229.66 72.4062C1229.5 72.1999 1229.39 72.0615 1229.39 72.0615C1229.39 72.0615 1228.6 72.2766 1227.37 72.5573C1226.15 72.8263 1224.43 73.1827 1222.76 73.3898C1219.42 73.8544 1215.86 74.0036 1215.86 74.0036L1217.86 77.0011C1217.86 77.0011 1218.08 76.9787 1218.45 76.9434C1218.84 76.8971 1219.39 76.8323 1220.05 76.7555C1221.36 76.5865 1223.08 76.3108 1224.74 75.9652C1225.57 75.7885 1226.37 75.6196 1227.15 75.4046C1227.93 75.1896 1228.64 74.9715 1229.24 74.7784C1230.44 74.3911 1231.2 74.0951 1231.2 74.0951C1231.2 74.0951 1230.74 73.6085 1230.27 73.121C1230.03 72.8947 1229.81 72.6138 1229.66 72.4062Z" fill="white"/>
<path d="M1236.7 79.1806C1236.12 78.6664 1235.54 78.1489 1235.54 78.1489C1235.54 78.1489 1233.36 79.0317 1230.76 79.9992H1237.63C1237.59 79.9642 1237.55 79.9295 1237.5 79.8904C1237.28 79.6963 1236.99 79.4381 1236.7 79.1806Z" fill="white"/>
<path d="M1206.78 1H1199.83C1199.82 1.00434 1199.82 1.00434 1199.82 1.00721V4.38248C1200.69 3.94739 1201.65 3.47625 1202.62 3.00383C1204.11 2.27763 1205.6 1.5606 1206.78 1Z" fill="white"/>
<path d="M1210.55 10.7062C1212.25 10.1852 1214.08 9.70537 1215.38 9.45968C1216.7 9.18634 1217.61 9.03979 1217.61 9.03979C1217.61 9.03979 1217.46 8.85286 1217.22 8.57616C1216.98 8.29917 1216.69 7.91987 1216.35 7.56269C1215.66 6.86453 1214.96 6.16577 1214.96 6.16577C1214.96 6.16577 1214.05 6.38075 1212.75 6.75699C1212.1 6.95271 1211.35 7.17924 1210.51 7.39807C1210.11 7.51223 1209.65 7.68632 1209.24 7.85766C1208.84 8.04301 1208.44 8.23439 1208.03 8.42646C1204.77 9.94602 1201.56 11.5085 1201.56 11.5085L1204.27 13.4856C1204.27 13.4856 1204.47 13.3848 1204.82 13.2202C1205.19 13.0666 1205.52 12.6668 1206.07 12.3837C1206.59 12.0576 1207.31 11.8117 1208.08 11.5312C1208.85 11.2514 1209.69 10.9675 1210.55 10.7062Z" fill="white"/>
<path d="M1224.01 18.0909C1224.01 18.0909 1223.53 17.2999 1223.05 16.5143C1222.81 16.1226 1222.57 15.7276 1222.39 15.4312C1222.21 15.1359 1222.07 14.9443 1222.07 14.9443C1222.07 14.9443 1218.36 15.1811 1214.87 15.7417C1213.14 15.9958 1211.35 16.4062 1210.08 16.7167C1208.79 17.0358 1207.97 17.2776 1207.97 17.2776C1207.97 17.2776 1208.44 17.8413 1208.9 18.4019C1209.14 18.6827 1209.38 18.9583 1209.53 19.2001C1209.69 19.4264 1209.8 19.5848 1209.8 19.5848C1209.8 19.5848 1213.2 18.8851 1216.82 18.5171C1220.33 18.1714 1224.01 18.0909 1224.01 18.0909Z" fill="white"/>
<path d="M1216.81 27.2601C1218.16 27.2141 1219.93 27.2141 1221.71 27.2333C1223.5 27.2526 1225.3 27.3022 1226.66 27.3558C1228.01 27.4093 1228.91 27.4473 1228.91 27.4473C1228.91 27.4473 1228.82 27.2479 1228.68 26.9528C1228.53 26.6544 1228.34 26.2582 1228.14 25.8622C1227.75 25.0642 1227.36 24.2698 1227.36 24.2698C1227.36 24.2698 1226.47 24.2501 1225.12 24.2243C1223.77 24.1968 1221.94 24.1968 1220.16 24.2346C1218.37 24.2697 1216.6 24.3466 1215.28 24.4228C1213.95 24.5195 1213.07 24.6071 1213.07 24.6071C1213.07 24.6071 1213.49 25.2479 1213.85 25.9585C1214.22 26.6488 1214.59 27.3444 1214.59 27.3444C1214.59 27.3444 1215.48 27.3094 1216.81 27.2601Z" fill="white"/>
<path d="M1224.54 33.2132C1220.96 33.0434 1217.41 32.9714 1217.41 32.9714L1218.78 35.9496C1218.78 35.9496 1219.67 35.9877 1221.01 36.0423C1222.35 36.1143 1224.13 36.2037 1225.92 36.2951C1229.49 36.4946 1233.07 36.6983 1233.07 36.6983L1231.7 33.5972C1231.7 33.5968 1228.12 33.4043 1224.54 33.2132Z" fill="white"/>
<path d="M1229.97 45.4167C1233.56 45.5676 1237.11 45.5865 1237.11 45.5865C1237.11 45.5865 1236.76 44.8571 1236.41 44.125C1236.24 43.7565 1236.06 43.3916 1235.93 43.1189C1235.81 42.835 1235.72 42.6468 1235.72 42.6468C1235.72 42.6468 1232.17 42.5272 1228.58 42.339C1225.01 42.1354 1221.43 41.9368 1221.43 41.9368L1222.81 45.0497C1222.81 45.0497 1226.4 45.2678 1229.97 45.4167Z" fill="white"/>
<path d="M1226.44 52.8135C1226.85 53.6115 1227.26 54.4058 1227.26 54.4058C1227.26 54.4058 1228.16 54.4185 1229.52 54.4297C1230.19 54.4297 1230.97 54.4297 1231.81 54.4212C1232.66 54.4058 1233.57 54.3834 1234.47 54.3444C1236.26 54.2683 1238.03 54.1417 1239.34 54.0235C1240 53.9614 1240.54 53.911 1240.92 53.8733C1241.31 53.8231 1241.53 53.7959 1241.53 53.7959C1241.53 53.7959 1241.41 53.6509 1241.27 53.3896C1241.13 53.1399 1240.93 52.8064 1240.74 52.468C1240.35 51.8003 1239.96 51.1289 1239.96 51.1289C1239.96 51.1289 1239.08 51.2019 1237.74 51.2668C1236.43 51.3169 1234.65 51.3594 1232.86 51.3666C1231.08 51.3735 1229.25 51.3437 1227.91 51.3059C1226.56 51.2596 1225.66 51.2285 1225.66 51.2285C1225.66 51.2285 1225.76 51.4242 1225.9 51.7236C1226.05 52.0238 1226.22 52.4143 1226.44 52.8135Z" fill="white"/>
<path d="M1242.57 62.0548C1243.38 61.8339 1244.12 61.6075 1244.75 61.4036C1246.01 61.0004 1246.81 60.6931 1246.81 60.6931C1246.81 60.6931 1246.32 60.1816 1245.83 59.6758C1245.57 59.4338 1245.35 59.1386 1245.19 58.9249C1245.02 58.7088 1244.91 58.5667 1244.91 58.5667C1244.91 58.5667 1244.08 58.7899 1242.79 59.081C1241.52 59.3619 1239.72 59.7375 1237.98 59.9567C1234.48 60.4398 1230.77 60.5933 1230.77 60.5933L1232.86 63.7286C1232.86 63.7286 1233.08 63.7058 1233.47 63.6669C1233.88 63.6214 1234.45 63.5524 1235.14 63.4724C1236.52 63.2942 1238.31 63.0085 1240.04 62.6465C1240.92 62.4593 1241.75 62.2824 1242.57 62.0548Z" fill="white"/>
<path d="M1251.73 67.9093C1252.95 67.3947 1253.77 67.0488 1253.77 67.0488C1253.77 67.0488 1253.61 66.9185 1253.36 66.7271C1253.14 66.5233 1252.83 66.2548 1252.53 65.9824C1251.92 65.4452 1251.32 64.9031 1251.32 64.9031C1251.32 64.9031 1248.05 66.2277 1244.66 67.4445C1242.97 68.0383 1241.26 68.68 1239.96 68.9949C1238.65 69.348 1237.74 69.5429 1237.74 69.5429C1237.74 69.5429 1237.92 69.7232 1238.17 69.9925C1238.43 70.2571 1238.78 70.6364 1239.12 70.963C1239.79 71.5582 1240.45 72.1531 1240.45 72.1531C1240.45 72.15 1243.89 70.9865 1247.21 69.7081C1248.87 69.0722 1250.51 68.4159 1251.73 67.9093Z" fill="white"/>
<path d="M1258.8 71.1089C1258.8 71.1089 1255.61 72.5948 1252.33 74.0034C1249.05 75.4158 1245.69 76.7595 1245.69 76.7595L1248.43 78.9741C1248.43 78.9741 1251.76 77.5927 1254.99 76.1412C1256.6 75.424 1258.23 74.6517 1259.44 74.088C1260.64 73.5117 1261.45 73.1312 1261.45 73.1312C1261.45 73.1312 1260.78 72.633 1260.11 72.1303C1259.44 71.6317 1258.8 71.1089 1258.8 71.1089Z" fill="white"/>
<path d="M1266.72 77.0698C1266.72 77.0698 1263.77 78.5321 1260.7 79.9994H1267.56C1268.7 79.4341 1269.46 79.0585 1269.46 79.0585L1266.72 77.0698Z" fill="white"/>
<path d="M1221.95 2.11736C1221.95 2.11736 1222.44 2.70393 1222.93 3.29179C1223.17 3.5829 1223.42 3.87116 1223.58 4.12425C1223.75 4.36263 1223.86 4.5236 1223.86 4.5236C1223.86 4.5236 1227.41 3.79788 1231.18 3.41009C1234.85 3.04926 1238.69 2.96522 1238.69 2.96522C1238.69 2.96522 1238.19 2.14412 1237.69 1.32252C1237.62 1.21557 1237.56 1.10833 1237.49 1H1226.46C1225.61 1.18022 1224.81 1.36844 1224.15 1.53285C1222.81 1.86298 1221.95 2.11736 1221.95 2.11736Z" fill="white"/>
<path d="M1228.85 12.5951C1228.85 12.5951 1229.77 12.5602 1231.16 12.5105C1232.57 12.4603 1234.42 12.4603 1236.28 12.4802C1238.14 12.5028 1240.02 12.553 1241.44 12.6065C1242.85 12.6641 1243.79 12.7022 1243.79 12.7022C1243.79 12.7022 1243.69 12.4985 1243.55 12.1876C1243.4 11.8769 1243.19 11.4667 1242.99 11.0481C1242.58 10.2198 1242.17 9.3897 1242.17 9.3897C1242.17 9.3897 1241.23 9.37044 1239.83 9.34062C1238.42 9.31336 1236.52 9.31336 1234.65 9.35069C1232.78 9.3895 1230.94 9.46998 1229.57 9.55125C1228.17 9.64694 1227.26 9.74362 1227.26 9.74362C1227.26 9.74362 1227.69 10.4071 1228.07 11.1487C1228.46 11.8739 1228.85 12.5951 1228.85 12.5951Z" fill="white"/>
<path d="M1239.22 18.6938C1235.47 18.5169 1231.78 18.4395 1231.78 18.4395L1233.2 21.549C1233.2 21.549 1234.13 21.5876 1235.53 21.649C1236.93 21.7181 1238.79 21.8136 1240.65 21.91C1244.38 22.1209 1248.12 22.3279 1248.12 22.3279L1246.69 19.0929C1246.69 19.0929 1242.96 18.8921 1239.22 18.6938Z" fill="white"/>
<path d="M1237.39 31.0168C1237.39 31.0168 1241.15 31.2441 1244.87 31.4015C1248.61 31.5582 1252.31 31.5774 1252.31 31.5774C1252.31 31.5774 1251.95 30.8147 1251.59 30.05C1251.41 29.6707 1251.23 29.2869 1251.09 29.0023C1250.96 28.7071 1250.87 28.5114 1250.87 28.5114C1250.87 28.5114 1247.16 28.3857 1243.42 28.1894C1239.69 27.9783 1235.96 27.7705 1235.96 27.7705L1237.39 31.0168Z" fill="white"/>
<path d="M1244.38 40.7818C1245.08 40.7765 1245.9 40.7735 1246.78 40.7694C1247.67 40.7537 1248.61 40.7272 1249.55 40.6848C1251.42 40.6123 1253.26 40.478 1254.63 40.359C1255.32 40.2898 1255.88 40.2364 1256.28 40.1975C1256.69 40.1481 1256.91 40.1133 1256.91 40.1133C1256.91 40.1133 1256.8 39.9644 1256.65 39.6916C1256.5 39.4301 1256.3 39.0813 1256.09 38.7315C1255.69 38.0331 1255.28 37.3357 1255.28 37.3357C1255.28 37.3357 1254.36 37.4118 1252.97 37.4766C1251.59 37.5301 1249.75 37.5763 1247.87 37.5846C1246.01 37.5916 1244.1 37.5566 1242.7 37.5188C1241.3 37.4692 1240.36 37.4381 1240.36 37.4381C1240.36 37.4381 1240.46 37.6461 1240.61 37.9516C1240.76 38.2636 1240.95 38.6778 1241.17 39.0922C1241.6 39.9255 1242.03 40.7536 1242.03 40.7536C1242.03 40.7536 1242.97 40.7664 1244.38 40.7818Z" fill="white"/>
<path d="M1248.5 50.3925C1248.92 50.3452 1249.52 50.2731 1250.24 50.1885C1251.67 50.005 1253.54 49.7041 1255.35 49.3288C1256.26 49.1334 1257.14 48.949 1257.99 48.7103C1258.84 48.4766 1259.61 48.2462 1260.26 48.0314C1261.57 47.6097 1262.41 47.2868 1262.41 47.2868C1262.41 47.2868 1261.9 46.7573 1261.39 46.2273C1261.13 45.9735 1260.89 45.6713 1260.72 45.4419C1260.55 45.2184 1260.43 45.0693 1260.43 45.0693C1260.43 45.0693 1259.56 45.3028 1258.22 45.6106C1256.89 45.9017 1255.02 46.2936 1253.2 46.524C1249.55 47.0258 1245.67 47.1875 1245.67 47.1875L1247.85 50.4578C1247.85 50.4572 1248.09 50.4346 1248.5 50.3925Z" fill="white"/>
<path d="M1260.15 54.3106C1258.39 54.9329 1256.6 55.6002 1255.24 55.9338C1253.87 56.2987 1252.93 56.5024 1252.93 56.5024C1252.93 56.5024 1253.11 56.6897 1253.38 56.9704C1253.65 57.2463 1254.01 57.6421 1254.36 57.9836C1255.06 58.6049 1255.76 59.2234 1255.76 59.2234C1255.76 59.2234 1259.35 58.0063 1262.81 56.6744C1264.54 56.0103 1266.25 55.3232 1267.52 54.7979C1268.8 54.2599 1269.65 53.8999 1269.65 53.8999C1269.65 53.8999 1269.48 53.762 1269.23 53.5615C1268.99 53.3508 1268.68 53.0669 1268.36 52.7871C1267.73 52.2223 1267.1 51.6589 1267.1 51.6589C1267.09 51.6586 1263.69 53.0439 1260.15 54.3106Z" fill="white"/>
<path d="M1275.55 61.2229C1276.81 60.6284 1277.65 60.2295 1277.65 60.2295C1277.65 60.2295 1276.95 59.7026 1276.25 59.1811C1275.54 58.6637 1274.88 58.1174 1274.88 58.1174C1274.88 58.1174 1271.55 59.6647 1268.13 61.1356C1264.71 62.6114 1261.2 64.0096 1261.2 64.0096L1264.06 66.32C1264.06 66.32 1267.53 64.8848 1270.9 63.3688C1272.58 62.6205 1274.29 61.81 1275.55 61.2229Z" fill="white"/>
<path d="M1269.69 70.7182L1272.6 72.9019C1272.6 72.9019 1275.97 71.3354 1279.31 69.6813C1279.82 69.4323 1280.32 69.1837 1280.82 68.9407V65.4485C1279.6 66.0474 1278.02 66.8114 1276.45 67.5634C1273.1 69.1639 1269.69 70.7182 1269.69 70.7182Z" fill="white"/>
<path d="M1280.82 78.8967V75.7964L1278.27 77.0555L1280.82 78.8967Z" fill="white"/>
<path d="M1250.05 7.25221C1251.51 7.32498 1253.45 7.42502 1255.39 7.52485C1259.27 7.74398 1263.16 7.96172 1263.16 7.96172L1261.67 4.58882C1261.67 4.58882 1257.78 4.3852 1253.89 4.17348C1249.99 3.98911 1246.14 3.90991 1246.14 3.90991L1247.63 7.14467C1247.63 7.14506 1248.59 7.18743 1250.05 7.25221Z" fill="white"/>
<path d="M1250.49 13.604L1251.98 16.9864C1251.98 16.9864 1255.89 17.223 1259.77 17.3848C1263.67 17.5504 1267.52 17.5686 1267.52 17.5686C1267.52 17.5686 1267.15 16.7753 1266.77 15.9804C1266.58 15.5811 1266.39 15.1851 1266.25 14.8831C1266.11 14.5797 1266.02 14.3757 1266.02 14.3757C1266.02 14.3757 1262.16 14.2454 1258.26 14.0383C1254.37 13.819 1250.49 13.604 1250.49 13.604Z" fill="white"/>
<path d="M1257.5 23.7287C1256.04 23.6783 1255.06 23.6446 1255.06 23.6446C1255.06 23.6446 1255.16 23.8595 1255.32 24.1856C1255.48 24.5117 1255.67 24.9373 1255.9 25.3717C1256.35 26.2345 1256.8 27.1016 1256.8 27.1016C1256.8 27.1016 1257.78 27.1141 1259.25 27.1293C1259.98 27.1252 1260.83 27.1252 1261.74 27.1183C1262.67 27.1016 1263.65 27.0718 1264.63 27.0296C1266.58 26.9528 1268.5 26.8146 1269.93 26.6881C1270.64 26.6189 1271.23 26.5616 1271.64 26.5225C1272.06 26.4647 1272.3 26.4384 1272.3 26.4384C1272.3 26.4384 1272.18 26.2769 1272.03 25.9969C1271.87 25.7255 1271.66 25.3604 1271.45 24.9948C1271.03 24.2667 1270.6 23.5413 1270.6 23.5413C1270.6 23.5413 1269.64 23.6164 1268.19 23.6905C1266.76 23.745 1264.83 23.7905 1262.88 23.7974C1260.95 23.8103 1258.96 23.775 1257.5 23.7287Z" fill="white"/>
<path d="M1260.57 33.7808L1262.85 37.1843C1262.85 37.1843 1263.09 37.1617 1263.52 37.1196C1263.96 37.0651 1264.58 36.9933 1265.34 36.9059C1266.83 36.7092 1268.78 36.3987 1270.66 36.0069C1271.61 35.8073 1272.52 35.6117 1273.4 35.3701C1274.29 35.124 1275.09 34.8782 1275.78 34.6601C1277.14 34.218 1278.01 33.885 1278.01 33.885C1278.01 33.885 1277.48 33.3313 1276.95 32.7746C1276.67 32.5187 1276.43 32.1988 1276.25 31.962C1276.07 31.7276 1275.95 31.5703 1275.95 31.5703C1275.95 31.5703 1275.05 31.8191 1273.65 32.1343C1272.27 32.4374 1270.31 32.8451 1268.42 33.0855C1264.61 33.6121 1260.57 33.7808 1260.57 33.7808Z" fill="white"/>
<path d="M1270.52 42.8655C1269.1 43.2492 1268.12 43.4603 1268.12 43.4603C1268.12 43.4603 1268.3 43.6555 1268.59 43.9481C1268.86 44.2362 1269.24 44.6506 1269.61 45.0032C1270.34 45.6482 1271.06 46.2966 1271.06 46.2966C1271.06 46.2966 1274.8 45.0298 1278.41 43.6369C1279.23 43.3253 1280.05 43.0039 1280.82 42.6972V39.2307C1279.45 39.7641 1277.57 40.4854 1275.64 41.1769C1273.8 41.8246 1271.94 42.5243 1270.52 42.8655Z" fill="white"/>
<path d="M1279.69 53.6694C1279.69 53.6694 1280.12 53.4924 1280.82 53.1975V49.5857C1278.51 50.5454 1276.71 51.2593 1276.71 51.2593L1279.69 53.6694Z" fill="white"/>
<path d="M1274.67 3.36812C1276.98 3.46766 1279.27 3.51319 1280.82 3.53817V1H1265.71L1266.57 2.95337C1266.57 2.95337 1270.63 3.19946 1274.67 3.36812Z" fill="white"/>
<path d="M1272.3 9.94224C1270.77 9.89287 1269.76 9.85791 1269.76 9.85791C1269.76 9.85791 1269.87 10.0814 1270.03 10.4185C1270.19 10.7569 1270.39 11.2013 1270.63 11.6508C1271.1 12.5532 1271.56 13.4512 1271.56 13.4512C1271.56 13.4512 1272.58 13.4625 1274.12 13.478C1274.87 13.4736 1275.76 13.4736 1276.71 13.4667C1277.67 13.4475 1278.7 13.4201 1279.71 13.3784C1280.08 13.3625 1280.45 13.3433 1280.82 13.3249V9.97779C1279.89 9.99675 1278.9 10.0081 1277.9 10.0115C1275.88 10.0233 1273.81 9.98856 1272.3 9.94224Z" fill="white"/>
<path d="M1277.84 23.9131C1277.84 23.9131 1278.1 23.8902 1278.54 23.8436C1279 23.7907 1279.65 23.7136 1280.43 23.6214C1280.55 23.6019 1280.69 23.5867 1280.82 23.5669V19.9792C1277.91 20.2701 1275.48 20.3699 1275.48 20.3699L1277.84 23.9131Z" fill="white"/>
<path d="M1280.8 30.9257C1280.8 30.9326 1280.81 30.9401 1280.82 30.945V30.304C1280.5 30.3798 1280.31 30.4185 1280.31 30.4185C1280.31 30.4185 1280.51 30.622 1280.8 30.9257Z" fill="white"/>
<path d="M1280.82 1V318.766" stroke="#606060" stroke-width="0.6636" stroke-miterlimit="10" stroke-dasharray="6.64 6.64"/>
</svg>
